# Blender 5.1.1
# www.blender.org
mtllib block.mtl
o belt_tire
v 0.810660 0.250000 1.249998
v 0.810660 0.750000 1.249998
v 0.732703 0.187500 1.061792
v 0.732703 0.812500 1.061792
v 1.250000 0.250000 0.810658
v 1.250000 0.750000 0.810658
v 1.061794 0.187500 0.732701
v 1.061794 0.812500 0.732701
v 1.250000 0.250000 0.189338
v 1.250000 0.750000 0.189338
v 1.061794 0.187500 0.267295
v 1.061794 0.812500 0.267295
v 0.810660 0.250000 -0.250002
v 0.810660 0.750000 -0.250002
v 0.732703 0.187500 -0.061796
v 0.732703 0.812500 -0.061796
v 0.189340 0.250000 -0.250002
v 0.189340 0.750000 -0.250002
v 0.267297 0.187500 -0.061796
v 0.267297 0.812500 -0.061796
v -0.250000 0.250000 0.189338
v -0.250000 0.750000 0.189338
v -0.061794 0.187500 0.267295
v -0.061794 0.812500 0.267295
v -0.250000 0.250000 0.810658
v -0.250000 0.750000 0.810658
v -0.061794 0.187500 0.732701
v -0.061794 0.812500 0.732701
v 0.189340 0.250000 1.249998
v 0.189340 0.750000 1.249998
v 0.267297 0.187500 1.061792
v 0.267297 0.812500 1.061792
v -0.250000 0.500000 0.810658
v -0.250000 0.500000 0.189338
v 0.189340 0.500000 -0.250002
v 0.810660 0.500000 -0.250002
v 1.250000 0.500000 0.189338
v 1.250000 0.500000 0.810658
v 0.810660 0.500000 1.249998
v 0.189340 0.500000 1.249998
vn 0.7071 -0.0000 0.7071
vn -0.7071 -0.0000 -0.7071
vn 0.2229 -0.9490 0.2229
vn 0.2229 0.9490 0.2229
vn 1.0000 -0.0000 -0.0000
vn -1.0000 -0.0000 -0.0000
vn 0.3152 -0.9490 -0.0000
vn 0.3152 0.9490 -0.0000
vn 0.7071 -0.0000 -0.7071
vn -0.7071 -0.0000 0.7071
vn 0.2229 -0.9490 -0.2229
vn 0.2229 0.9490 -0.2229
vn -0.0000 -0.0000 -1.0000
vn -0.0000 -0.0000 1.0000
vn -0.0000 -0.9490 -0.3152
vn -0.0000 0.9490 -0.3152
vn -0.2229 -0.9490 -0.2229
vn -0.2229 0.9490 -0.2229
vn -0.3152 -0.9490 -0.0000
vn -0.3152 0.9490 -0.0000
vn -0.2229 -0.9490 0.2229
vn -0.2229 0.9490 0.2229
vn -0.0000 -0.9490 0.3152
vn -0.0000 0.9490 0.3152
vt 0.437500 0.000000
vt 0.562500 0.000000
vt 0.562500 0.312500
vt 0.437500 0.312500
vt 0.357700 0.906250
vt 0.125000 0.906250
vt 0.125000 0.875000
vt 0.357700 0.875000
vt 0.101712 0.000000
vt 0.335788 0.000000
vt 0.375000 0.093750
vt 0.062500 0.093750
s 1
usemtl m_a1331e58-40a9-8096-4155-344fe1c3d5c6
f 2/1/1 39/2/1 38/3/1 6/4/1
f 4/5/2 8/6/2 7/7/2 3/8/2
f 3/9/3 7/10/3 5/11/3 1/12/3
f 2/11/4 6/12/4 8/9/4 4/10/4
f 6/1/5 38/2/5 37/3/5 10/4/5
f 8/5/6 12/6/6 11/7/6 7/8/6
f 7/9/7 11/10/7 9/11/7 5/12/7
f 6/11/8 10/12/8 12/9/8 8/10/8
f 10/1/9 37/2/9 36/3/9 14/4/9
f 12/5/10 16/6/10 15/7/10 11/8/10
f 11/9/11 15/10/11 13/11/11 9/12/11
f 10/11/12 14/12/12 16/9/12 12/10/12
f 14/1/13 36/2/13 35/3/13 18/4/13
f 16/5/14 20/6/14 19/7/14 15/8/14
f 15/9/15 19/10/15 17/11/15 13/12/15
f 14/11/16 18/12/16 20/9/16 16/10/16
f 18/1/2 35/2/2 34/3/2 22/4/2
f 20/5/1 24/6/1 23/7/1 19/8/1
f 19/9/17 23/10/17 21/11/17 17/12/17
f 18/11/18 22/12/18 24/9/18 20/10/18
f 22/1/6 34/2/6 33/3/6 26/4/6
f 24/5/5 28/6/5 27/7/5 23/8/5
f 23/9/19 27/10/19 25/11/19 21/12/19
f 22/11/20 26/12/20 28/9/20 24/10/20
f 26/1/10 33/2/10 40/3/10 30/4/10
f 28/5/9 32/6/9 31/7/9 27/8/9
f 27/9/21 31/10/21 29/11/21 25/12/21
f 26/11/22 30/12/22 32/9/22 28/10/22
f 30/1/14 40/2/14 39/3/14 2/4/14
f 32/5/13 4/6/13 3/7/13 31/8/13
f 31/9/23 3/10/23 1/11/23 29/12/23
f 30/11/24 2/12/24 4/9/24 32/10/24
f 25/4/6 33/3/6 34/2/6 21/1/6
f 21/4/2 34/3/2 35/2/2 17/1/2
f 17/4/13 35/3/13 36/2/13 13/1/13
f 13/4/9 36/3/9 37/2/9 9/1/9
f 9/4/5 37/3/5 38/2/5 5/1/5
f 5/4/1 38/3/1 39/2/1 1/1/1
f 1/4/14 39/3/14 40/2/14 29/1/14
f 29/4/10 40/3/10 33/2/10 25/1/10
o core
v 0.422917 0.812500 0.315000
v 0.577083 0.812500 0.315000
v 0.422917 0.812500 0.685000
v 0.577083 0.812500 0.685000
v 0.438333 0.250000 0.648000
v 0.561667 0.250000 0.648000
v 0.438333 0.250000 0.352000
v 0.561667 0.250000 0.352000
v 0.685000 0.812500 0.577083
v 0.685000 0.812500 0.422917
v 0.315000 0.812500 0.577083
v 0.315000 0.812500 0.422917
v 0.648000 0.250000 0.561667
v 0.648000 0.250000 0.438333
v 0.352000 0.250000 0.561667
v 0.352000 0.250000 0.438333
v 0.500000 0.250000 0.500000
v 0.500000 0.812500 0.500000
v 0.422917 0.281250 0.685000
v 0.315000 0.281250 0.577083
v 0.577083 0.281250 0.685000
v 0.422917 0.281250 0.315000
v 0.315000 0.281250 0.422917
v 0.577083 0.281250 0.315000
v 0.685000 0.281250 0.422917
v 0.685000 0.281250 0.577083
vn -0.0000 1.0000 -0.0000
vn -0.0000 -0.0000 -1.0000
vn -0.0000 -0.0000 1.0000
vn -0.0000 -1.0000 -0.0000
vn -0.7071 -0.0000 0.7071
vn 1.0000 -0.0000 -0.0000
vn -0.7071 -0.0000 -0.7071
vn -1.0000 -0.0000 -0.0000
vn 0.7071 -0.0000 -0.7071
vn 0.7071 -0.0000 0.7071
vn -0.4558 -0.7645 0.4558
vn -0.0000 -0.7640 0.6452
vn -0.4558 -0.7645 -0.4558
vn -0.0000 -0.7640 -0.6452
vn 0.4558 -0.7645 -0.4558
vn 0.4558 -0.7645 0.4558
vn 0.6452 -0.7640 -0.0000
vn -0.6452 -0.7640 -0.0000
vt 0.935927 0.187190
vt 0.899795 0.100131
vt 0.812146 0.187534
vt 0.899795 0.100131
vt 0.811802 0.063753
vt 0.811802 0.063753
vt 0.724742 0.099885
vt 0.812490 0.311315
vt 0.724497 0.274938
vt 0.724497 0.274938
vt 0.812490 0.311315
vt 0.812146 0.187534
vt 0.724742 0.099885
vt 0.935927 0.187190
vt 0.899550 0.275184
vt 0.899550 0.275184
vt 0.688365 0.187879
vt 0.688365 0.187879
s 1
usemtl m_a1331e58-40a9-8096-4155-344fe1c3d5c6
f 50/13/25 42/14/25 58/15/25
f 64/16/26 62/17/26 41/18/26 42/14/26
f 52/19/25 58/15/25 41/18/25
f 44/20/27 43/21/27 59/22/27 61/23/27
f 47/17/28 57/24/28 56/25/28
f 57/24/28 47/17/28 48/16/28
f 48/16/28 54/26/28 57/24/28
f 58/15/25 43/21/25 44/20/25
f 42/14/25 41/18/25 58/15/25
f 53/27/28 46/23/28 57/24/28
f 50/13/25 58/15/25 49/28/25
f 46/23/28 45/22/28 57/24/28
f 55/29/28 57/24/28 45/22/28
f 53/27/28 57/24/28 54/26/28
f 60/29/29 59/22/29 43/21/29 51/30/29
f 50/13/30 49/28/30 66/27/30 65/26/30
f 52/19/31 41/18/31 62/17/31 63/25/31
f 51/30/32 52/19/32 63/25/32 60/29/32
f 64/16/33 42/14/33 50/13/33 65/26/33
f 57/24/28 55/29/28 56/25/28
f 61/23/34 66/27/34 49/28/34 44/20/34
f 58/15/25 52/19/25 51/30/25
f 44/20/25 49/28/25 58/15/25
f 43/21/25 58/15/25 51/30/25
f 55/29/35 45/22/35 59/22/35 60/29/35
f 45/22/36 46/23/36 61/23/36 59/22/36
f 47/17/37 56/25/37 63/25/37 62/17/37
f 48/16/38 47/17/38 62/17/38 64/16/38
f 54/26/39 48/16/39 64/16/39 65/26/39
f 46/23/40 53/27/40 66/27/40 61/23/40
f 53/27/41 54/26/41 65/26/41 66/27/41
f 56/25/42 55/29/42 60/29/42 63/25/42
o spokes
v 0.290304 0.820935 1.006250
v 0.709696 0.820935 1.006250
v 0.732995 0.187500 1.062500
v 0.424510 0.312500 0.682250
v 0.575490 0.312500 0.682250
v 0.709696 0.758435 1.006250
v 0.500000 0.758435 0.500000
v 0.500000 0.312500 0.500000
v 0.709696 0.187500 1.006250
v 1.006250 0.820935 0.709696
v 1.062500 0.187500 0.732995
v 1.006250 0.187500 0.709696
v 0.732995 0.812500 1.062500
v 1.006250 0.758435 0.709696
v 1.062500 0.187500 0.267005
v 0.682250 0.312500 0.575491
v 1.062500 0.812500 0.732995
v 1.062500 0.812500 0.267005
v 1.006250 0.187500 0.290304
v 1.006250 0.820935 0.290304
v 0.709696 0.820935 -0.006250
v 0.732995 0.187500 -0.062500
v 0.709696 0.187500 -0.006250
v 0.682250 0.312500 0.424510
v 0.575491 0.312500 0.317750
v 0.732995 0.812500 -0.062500
v 1.006250 0.758435 0.290304
v 0.709696 0.758435 -0.006250
v 0.290305 0.820935 -0.006250
v 0.267005 0.187500 -0.062500
v 0.290305 0.187500 -0.006250
v 0.290305 0.758435 -0.006250
v -0.006250 0.820935 0.290304
v -0.062500 0.187500 0.267005
v 0.424510 0.312500 0.317750
v 0.267005 0.812500 -0.062500
v -0.006250 0.758435 0.290304
v -0.006250 0.187500 0.290304
v -0.006250 0.820935 0.709696
v -0.062500 0.187500 0.732995
v 0.317750 0.312500 0.424509
v 0.317750 0.312500 0.575490
v -0.062500 0.812500 0.267005
v -0.062500 0.812500 0.732995
v -0.006250 0.758435 0.709696
v -0.006250 0.187500 0.709696
v 0.267005 0.187500 1.062500
v 0.290304 0.187500 1.006250
v 0.267005 0.812500 1.062500
v 0.290304 0.758435 1.006250
vn -0.0000 -0.9330 -0.3599
vn -0.0000 -1.0000 -0.0000
vn -0.0000 -0.0000 1.0000
vn -0.0000 0.9889 0.1483
vn -0.0000 -0.0000 -1.0000
vn -0.0000 1.0000 -0.0000
vn -0.2545 -0.9330 -0.2545
vn 0.7071 -0.0000 0.7071
vn 0.1049 0.9889 0.1049
vn -0.7071 -0.0000 -0.7071
vn -0.3599 -0.9330 -0.0000
vn 1.0000 -0.0000 -0.0000
vn 0.1483 0.9889 -0.0000
vn -1.0000 -0.0000 -0.0000
vn -0.2545 -0.9330 0.2545
vn 0.7071 -0.0000 -0.7071
vn 0.1049 0.9889 -0.1049
vn -0.7071 -0.0000 0.7071
vn -0.0000 -0.9330 0.3599
vn -0.0000 0.9889 -0.1483
vn 0.2545 -0.9330 0.2545
vn -0.1049 0.9889 -0.1049
vn 0.3599 -0.9330 -0.0000
vn -0.1483 0.9889 -0.0000
vn 0.2545 -0.9330 -0.2545
vn -0.1049 0.9889 0.1049
vt 0.977865 0.953265
vt 0.621598 0.953265
vt 0.735603 0.658258
vt 0.863859 0.658258
vt 0.997657 1.001048
vt 0.601805 1.001048
vt 0.532343 0.969858
vt 0.561970 0.969858
vt 0.561970 0.999204
vt 0.532343 0.999204
vt 0.977550 0.953462
vt 0.622048 0.953462
vt 0.602298 1.001143
vt 0.997300 1.001143
vt 0.799799 0.504647
vt 0.799731 0.503439
s 1
usemtl m_a1331e58-40a9-8096-4155-344fe1c3d5c6
f 75/31/43 114/32/43 70/33/43 71/34/43
f 69/35/44 113/36/44 114/32/44 75/31/44
f 79/37/45 115/38/45 113/39/45 69/40/45
f 68/41/46 67/42/46 115/43/46 79/44/46
f 67/42/47 68/41/47 72/41/47 116/42/47
f 116/42/48 72/41/48 73/45/48
f 71/34/44 70/33/44 74/46/44
f 78/31/49 75/32/49 71/33/49 82/34/49
f 77/35/44 69/36/44 75/32/44 78/31/44
f 83/37/50 79/38/50 69/39/50 77/40/50
f 76/41/51 68/42/51 79/43/51 83/44/51
f 68/42/52 76/41/52 80/41/52 72/42/52
f 72/42/48 80/41/48 73/45/48
f 82/34/44 71/33/44 74/46/44
f 85/31/53 78/32/53 82/33/53 90/34/53
f 81/35/44 77/36/44 78/32/44 85/31/44
f 84/37/54 83/38/54 77/39/54 81/40/54
f 86/41/55 76/42/55 83/43/55 84/44/55
f 76/42/56 86/41/56 93/41/56 80/42/56
f 80/42/48 93/41/48 73/45/48
f 90/34/44 82/33/44 74/46/44
f 89/31/57 85/32/57 90/33/57 91/34/57
f 88/35/44 81/36/44 85/32/44 89/31/44
f 92/37/58 84/38/58 81/39/58 88/40/58
f 87/41/59 86/42/59 84/43/59 92/44/59
f 86/42/60 87/41/60 94/41/60 93/42/60
f 93/42/48 94/41/48 73/45/48
f 91/34/44 90/33/44 74/46/44
f 97/31/61 89/32/61 91/33/61 101/34/61
f 96/35/44 88/36/44 89/32/44 97/31/44
f 102/37/47 92/38/47 88/39/47 96/40/47
f 95/41/62 87/42/62 92/43/62 102/44/62
f 87/42/45 95/41/45 98/41/45 94/42/45
f 94/42/48 98/41/48 73/45/48
f 101/34/44 91/33/44 74/46/44
f 104/31/63 97/32/63 101/33/63 107/34/63
f 100/35/44 96/36/44 97/32/44 104/31/44
f 109/37/52 102/38/52 96/39/52 100/40/52
f 99/41/64 95/42/64 102/43/64 109/44/64
f 95/42/50 99/41/50 103/41/50 98/42/50
f 98/42/48 103/41/48 73/45/48
f 107/34/44 101/33/44 74/46/44
f 112/31/65 104/32/65 107/33/65 108/34/65
f 106/35/44 100/36/44 104/32/44 112/31/44
f 110/37/56 109/38/56 100/39/56 106/40/56
f 105/41/66 99/42/66 109/43/66 110/44/66
f 99/42/54 105/41/54 111/41/54 103/42/54
f 103/42/48 111/41/48 73/45/48
f 108/34/44 107/33/44 74/46/44
f 114/31/67 112/32/67 108/33/67 70/34/67
f 113/35/44 106/36/44 112/32/44 114/31/44
f 115/37/60 110/38/60 106/39/60 113/40/60
f 67/41/68 105/42/68 110/43/68 115/44/68
f 105/42/58 67/41/58 116/41/58 111/42/58
f 111/42/48 116/41/48 73/45/48
f 70/34/44 108/33/44 74/46/44
