# Blender 5.2.0 LTS
# www.blender.org
mtllib steel_tire.mtl
o belt_tire
v 0.965868 0.205317 1.624703
v 0.965868 0.805120 1.624703
v 0.848963 0.130341 1.342468
v 0.848963 0.880096 1.342468
v 1.624705 0.205317 0.965865
v 1.624705 0.805120 0.965865
v 1.342470 0.130341 0.848960
v 1.342470 0.880096 0.848960
v 1.624705 0.205317 0.034129
v 1.624705 0.805120 0.034129
v 1.342470 0.130341 0.151034
v 1.342470 0.880096 0.151034
v 0.965868 0.205317 -0.624708
v 0.965868 0.805120 -0.624708
v 0.848963 0.130341 -0.342473
v 0.848963 0.880096 -0.342473
v 0.034132 0.205317 -0.624708
v 0.034132 0.805120 -0.624708
v 0.151037 0.130341 -0.342473
v 0.151037 0.880096 -0.342473
v -0.624705 0.205317 0.034129
v -0.624705 0.805120 0.034129
v -0.342470 0.130341 0.151034
v -0.342470 0.880096 0.151034
v -0.624705 0.205317 0.965865
v -0.624705 0.805120 0.965865
v -0.342470 0.130341 0.848960
v -0.342470 0.880096 0.848960
v 0.034132 0.205317 1.624703
v 0.034132 0.805120 1.624703
v 0.151037 0.130341 1.342468
v 0.151037 0.880096 1.342468
v -0.624705 0.505219 0.965865
v -0.624705 0.505219 0.034129
v 0.034132 0.505219 -0.624708
v 0.965868 0.505219 -0.624708
v 1.624705 0.505219 0.034129
v 1.624705 0.505219 0.965865
v 0.965868 0.505219 1.624703
v 0.034132 0.505219 1.624703
vn 0.7071 -0.0000 0.7071
vn -0.7071 -0.0000 -0.7071
vn 0.1815 -0.9665 0.1815
vn 0.1815 0.9665 0.1815
vn 1.0000 -0.0000 -0.0000
vn -1.0000 -0.0000 -0.0000
vn 0.2567 -0.9665 -0.0000
vn 0.2567 0.9665 -0.0000
vn 0.7071 -0.0000 -0.7071
vn -0.7071 -0.0000 0.7071
vn 0.1815 -0.9665 -0.1815
vn 0.1815 0.9665 -0.1815
vn -0.0000 -0.0000 -1.0000
vn -0.0000 -0.0000 1.0000
vn -0.0000 -0.9665 -0.2567
vn -0.0000 0.9665 -0.2567
vn -0.1815 -0.9665 -0.1815
vn -0.1815 0.9665 -0.1815
vn -0.2567 -0.9665 -0.0000
vn -0.2567 0.9665 -0.0000
vn -0.1815 -0.9665 0.1815
vn -0.1815 0.9665 0.1815
vn -0.0000 -0.9665 0.2567
vn -0.0000 0.9665 0.2567
vt 0.437500 0.000000
vt 0.562500 0.000000
vt 0.562500 0.312500
vt 0.437500 0.312500
vt 0.357700 0.906250
vt 0.125000 0.906250
vt 0.125000 0.875000
vt 0.357700 0.875000
vt 0.101712 0.000000
vt 0.335788 0.000000
vt 0.375000 0.093750
vt 0.062500 0.093750
s 1
usemtl m_a1331e58-40a9-8096-4155-344fe1c3d5c6.001
f 2/1/1 39/2/1 38/3/1 6/4/1
f 4/5/2 8/6/2 7/7/2 3/8/2
f 3/9/3 7/10/3 5/11/3 1/12/3
f 2/11/4 6/12/4 8/9/4 4/10/4
f 6/1/5 38/2/5 37/3/5 10/4/5
f 8/5/6 12/6/6 11/7/6 7/8/6
f 7/9/7 11/10/7 9/11/7 5/12/7
f 6/11/8 10/12/8 12/9/8 8/10/8
f 10/1/9 37/2/9 36/3/9 14/4/9
f 12/5/10 16/6/10 15/7/10 11/8/10
f 11/9/11 15/10/11 13/11/11 9/12/11
f 10/11/12 14/12/12 16/9/12 12/10/12
f 14/1/13 36/2/13 35/3/13 18/4/13
f 16/5/14 20/6/14 19/7/14 15/8/14
f 15/9/15 19/10/15 17/11/15 13/12/15
f 14/11/16 18/12/16 20/9/16 16/10/16
f 18/1/2 35/2/2 34/3/2 22/4/2
f 20/5/1 24/6/1 23/7/1 19/8/1
f 19/9/17 23/10/17 21/11/17 17/12/17
f 18/11/18 22/12/18 24/9/18 20/10/18
f 22/1/6 34/2/6 33/3/6 26/4/6
f 24/5/5 28/6/5 27/7/5 23/8/5
f 23/9/19 27/10/19 25/11/19 21/12/19
f 22/11/20 26/12/20 28/9/20 24/10/20
f 26/1/10 33/2/10 40/3/10 30/4/10
f 28/5/9 32/6/9 31/7/9 27/8/9
f 27/9/21 31/10/21 29/11/21 25/12/21
f 26/11/22 30/12/22 32/9/22 28/10/22
f 30/1/14 40/2/14 39/3/14 2/4/14
f 32/5/13 4/6/13 3/7/13 31/8/13
f 31/9/23 3/10/23 1/11/23 29/12/23
f 30/11/24 2/12/24 4/9/24 32/10/24
f 25/4/6 33/3/6 34/2/6 21/1/6
f 21/4/2 34/3/2 35/2/2 17/1/2
f 17/4/13 35/3/13 36/2/13 13/1/13
f 13/4/9 36/3/9 37/2/9 9/1/9
f 9/4/5 37/3/5 38/2/5 5/1/5
f 5/4/1 38/3/1 39/2/1 1/1/1
f 1/4/14 39/3/14 40/2/14 29/1/14
f 29/4/10 40/3/10 33/2/10 25/1/10
o core
v 0.384674 0.840237 0.223215
v 0.615326 0.840237 0.223215
v 0.384674 0.840237 0.776785
v 0.615326 0.840237 0.776785
v 0.407738 0.206786 0.721428
v 0.592262 0.206786 0.721428
v 0.407738 0.206786 0.278572
v 0.592262 0.206786 0.278572
v 0.776784 0.840237 0.615327
v 0.776784 0.840237 0.384674
v 0.223216 0.840237 0.615327
v 0.223216 0.840237 0.384674
v 0.721427 0.206786 0.592263
v 0.721427 0.206786 0.407738
v 0.278573 0.206786 0.592263
v 0.278573 0.206786 0.407738
v 0.500000 0.206786 0.500000
v 0.500000 0.840237 0.500000
v 0.384674 0.241978 0.776785
v 0.223216 0.241978 0.615327
v 0.615326 0.241978 0.776785
v 0.384674 0.241977 0.223215
v 0.223216 0.241977 0.384674
v 0.615326 0.241977 0.223215
v 0.776784 0.241977 0.384674
v 0.776784 0.241978 0.615327
vn -0.0000 1.0000 -0.0000
vn -0.0000 -0.0000 -1.0000
vn -0.0000 -0.0000 1.0000
vn -0.0000 -1.0000 -0.0000
vn -0.7071 -0.0000 0.7071
vn 1.0000 -0.0000 -0.0000
vn -0.7071 -0.0000 -0.7071
vn -1.0000 -0.0000 -0.0000
vn 0.7071 -0.0000 -0.7071
vn 0.7071 -0.0000 0.7071
vn -0.3789 -0.8443 0.3789
vn -0.0000 -0.8439 0.5365
vn -0.3789 -0.8443 -0.3789
vn -0.0000 -0.8439 -0.5365
vn 0.3789 -0.8443 -0.3789
vn 0.3789 -0.8443 0.3789
vn 0.5365 -0.8439 -0.0000
vn -0.5365 -0.8439 -0.0000
vt 0.935927 0.187190
vt 0.899795 0.100131
vt 0.812146 0.187534
vt 0.811802 0.063753
vt 0.724742 0.099885
vt 0.812490 0.311315
vt 0.724497 0.274938
vt 0.899550 0.275184
vt 0.688365 0.187879
s 1
usemtl m_a1331e58-40a9-8096-4155-344fe1c3d5c6.001
f 50/13/25 42/14/25 58/15/25
f 64/14/26 62/16/26 41/16/26 42/14/26
f 52/17/25 58/15/25 41/16/25
f 44/18/27 43/19/27 59/19/27 61/18/27
f 47/16/28 57/15/28 56/17/28
f 57/15/28 47/16/28 48/14/28
f 48/14/28 54/13/28 57/15/28
f 58/15/25 43/19/25 44/18/25
f 42/14/25 41/16/25 58/15/25
f 53/20/28 46/18/28 57/15/28
f 50/13/25 58/15/25 49/20/25
f 46/18/28 45/19/28 57/15/28
f 55/21/28 57/15/28 45/19/28
f 53/20/28 57/15/28 54/13/28
f 60/21/29 59/19/29 43/19/29 51/21/29
f 50/13/30 49/20/30 66/20/30 65/13/30
f 52/17/31 41/16/31 62/16/31 63/17/31
f 51/21/32 52/17/32 63/17/32 60/21/32
f 64/14/33 42/14/33 50/13/33 65/13/33
f 57/15/28 55/21/28 56/17/28
f 61/18/34 66/20/34 49/20/34 44/18/34
f 58/15/25 52/17/25 51/21/25
f 44/18/25 49/20/25 58/15/25
f 43/19/25 58/15/25 51/21/25
f 55/21/35 45/19/35 59/19/35 60/21/35
f 45/19/36 46/18/36 61/18/36 59/19/36
f 47/16/37 56/17/37 63/17/37 62/16/37
f 48/14/38 47/16/38 62/16/38 64/14/38
f 54/13/39 48/14/39 64/14/39 65/13/39
f 46/18/40 53/20/40 66/20/40 61/18/40
f 53/20/41 54/13/41 65/13/41 66/20/41
f 56/17/42 55/21/42 60/21/42 63/17/42
o spokes
v 0.186266 0.859586 1.257419
v 0.813734 0.859586 1.257419
v 0.848592 0.171590 1.341576
v 0.387057 0.307357 0.772671
v 0.612943 0.307357 0.772671
v 0.813734 0.791702 1.257419
v 0.500000 0.791702 0.500000
v 0.500000 0.307357 0.500000
v 0.813734 0.171590 1.257419
v 1.257418 0.859586 0.813734
v 1.341576 0.171590 0.848592
v 1.257418 0.171590 0.813734
v 0.848592 0.850424 1.341576
v 1.257418 0.791702 0.813734
v 1.341576 0.171590 0.151408
v 0.772671 0.307357 0.612945
v 1.341576 0.850424 0.848592
v 1.341576 0.850424 0.151408
v 1.257418 0.171590 0.186267
v 1.257418 0.859586 0.186267
v 0.813734 0.859586 -0.257418
v 0.848592 0.171590 -0.341576
v 0.813734 0.171590 -0.257418
v 0.772671 0.307357 0.387057
v 0.612945 0.307357 0.227330
v 0.848592 0.850424 -0.341576
v 1.257418 0.791702 0.186267
v 0.813734 0.791702 -0.257418
v 0.186268 0.859586 -0.257418
v 0.151408 0.171590 -0.341576
v 0.186268 0.171590 -0.257418
v 0.186268 0.791702 -0.257418
v -0.257418 0.859586 0.186267
v -0.341576 0.171590 0.151408
v 0.387057 0.307357 0.227330
v 0.151408 0.850424 -0.341576
v -0.257418 0.791702 0.186267
v -0.257418 0.171590 0.186267
v -0.257418 0.859586 0.813734
v -0.341576 0.171590 0.848592
v 0.227329 0.307357 0.387056
v 0.227329 0.307357 0.612944
v -0.341576 0.850424 0.151408
v -0.341576 0.850424 0.848592
v -0.257418 0.791702 0.813734
v -0.257418 0.171590 0.813734
v 0.151408 0.171590 1.341576
v 0.186266 0.171590 1.257419
v 0.151408 0.850424 1.341576
v 0.186266 0.791702 1.257419
vn -0.0000 -0.9629 -0.2697
vn -0.0000 -1.0000 -0.0000
vn -0.0000 -0.0000 1.0000
vn -0.0000 0.9941 0.1082
vn -0.0000 -0.0000 -1.0000
vn -0.0000 1.0000 -0.0000
vn -0.1907 -0.9629 -0.1907
vn 0.7071 -0.0000 0.7071
vn 0.0765 0.9941 0.0765
vn -0.7071 -0.0000 -0.7071
vn -0.2697 -0.9629 -0.0000
vn 1.0000 -0.0000 -0.0000
vn 0.1082 0.9941 -0.0000
vn -1.0000 -0.0000 -0.0000
vn -0.1907 -0.9629 0.1907
vn 0.7071 -0.0000 -0.7071
vn 0.0765 0.9941 -0.0765
vn -0.7071 -0.0000 0.7071
vn -0.0000 -0.9629 0.2697
vn -0.0000 0.9941 -0.1082
vn 0.1907 -0.9629 0.1907
vn -0.0765 0.9941 -0.0765
vn 0.2697 -0.9629 -0.0000
vn -0.1082 0.9941 -0.0000
vn 0.1907 -0.9629 -0.1907
vn -0.0765 0.9941 0.0765
vt 0.977865 0.953265
vt 0.621598 0.953265
vt 0.735603 0.658258
vt 0.863859 0.658258
vt 0.997657 1.001048
vt 0.601805 1.001048
vt 0.532343 0.969858
vt 0.561970 0.969858
vt 0.561970 0.999204
vt 0.532343 0.999204
vt 0.977550 0.953462
vt 0.622048 0.953462
vt 0.602298 1.001143
vt 0.997300 1.001143
vt 0.799799 0.504647
vt 0.799731 0.503439
s 1
usemtl m_a1331e58-40a9-8096-4155-344fe1c3d5c6.001
f 75/22/43 114/23/43 70/24/43 71/25/43
f 69/26/44 113/27/44 114/23/44 75/22/44
f 79/28/45 115/29/45 113/30/45 69/31/45
f 68/32/46 67/33/46 115/34/46 79/35/46
f 67/33/47 68/32/47 72/32/47 116/33/47
f 116/33/48 72/32/48 73/36/48
f 71/25/44 70/24/44 74/37/44
f 78/22/49 75/23/49 71/24/49 82/25/49
f 77/26/44 69/27/44 75/23/44 78/22/44
f 83/28/50 79/29/50 69/30/50 77/31/50
f 76/32/51 68/33/51 79/34/51 83/35/51
f 68/33/52 76/32/52 80/32/52 72/33/52
f 72/33/48 80/32/48 73/36/48
f 82/25/44 71/24/44 74/37/44
f 85/22/53 78/23/53 82/24/53 90/25/53
f 81/26/44 77/27/44 78/23/44 85/22/44
f 84/28/54 83/29/54 77/30/54 81/31/54
f 86/32/55 76/33/55 83/34/55 84/35/55
f 76/33/56 86/32/56 93/32/56 80/33/56
f 80/33/48 93/32/48 73/36/48
f 90/25/44 82/24/44 74/37/44
f 89/22/57 85/23/57 90/24/57 91/25/57
f 88/26/44 81/27/44 85/23/44 89/22/44
f 92/28/58 84/29/58 81/30/58 88/31/58
f 87/32/59 86/33/59 84/34/59 92/35/59
f 86/33/60 87/32/60 94/32/60 93/33/60
f 93/33/48 94/32/48 73/36/48
f 91/25/44 90/24/44 74/37/44
f 97/22/61 89/23/61 91/24/61 101/25/61
f 96/26/44 88/27/44 89/23/44 97/22/44
f 102/28/47 92/29/47 88/30/47 96/31/47
f 95/32/62 87/33/62 92/34/62 102/35/62
f 87/33/45 95/32/45 98/32/45 94/33/45
f 94/33/48 98/32/48 73/36/48
f 101/25/44 91/24/44 74/37/44
f 104/22/63 97/23/63 101/24/63 107/25/63
f 100/26/44 96/27/44 97/23/44 104/22/44
f 109/28/52 102/29/52 96/30/52 100/31/52
f 99/32/64 95/33/64 102/34/64 109/35/64
f 95/33/50 99/32/50 103/32/50 98/33/50
f 98/33/48 103/32/48 73/36/48
f 107/25/44 101/24/44 74/37/44
f 112/22/65 104/23/65 107/24/65 108/25/65
f 106/26/44 100/27/44 104/23/44 112/22/44
f 110/28/56 109/29/56 100/30/56 106/31/56
f 105/32/66 99/33/66 109/34/66 110/35/66
f 99/33/54 105/32/54 111/32/54 103/33/54
f 103/33/48 111/32/48 73/36/48
f 108/25/44 107/24/44 74/37/44
f 114/22/67 112/23/67 108/24/67 70/25/67
f 113/26/44 106/27/44 112/23/44 114/22/44
f 115/28/60 110/29/60 106/30/60 113/31/60
f 67/32/68 105/33/68 110/34/68 115/35/68
f 105/33/58 67/32/58 116/32/58 111/33/58
f 111/33/48 116/32/48 73/36/48
f 70/25/44 108/24/44 74/37/44
